<svg xmlns="http://www.w3.org/2000/svg" width="1302.707" height="1318.787" viewBox="0 0 1302.707 1318.787">
  <g id="clouds-right" transform="translate(-6824.689 -4847.336)">
    <path id="Path_162" data-name="Path 162" d="M1518.88,149.5c-16.939,56.417,28.208,67.686,5.669,107.094s-50.747,0-50.747,33.808-11.269,39.478-16.939,73.286,11.269,33.808,0,73.286-28.208,28.208-56.417,101.494-5.67,62.016-28.208,107.094-22.539,50.747-78.956,112.763S1225.6,826.013,1169.251,871.09c-56.417,45.077-28.208,50.747-90.225,112.763s-112.763,118.433-180.449,157.841c-67.686,39.478-95.824,62.016-163.51,78.955s-118.433,28.208-180.449,56.417-107.094,33.808-118.433,39.478c-11.269,5.67,67.686,11.269,146.571-11.269,78.955-22.539,56.417-5.67,163.51-39.478s84.555-22.539,214.257-84.555,118.433-118.433,202.988-146.571c84.555-28.208,129.7-62.016,157.84-101.494,28.208-39.478,16.939-56.417,84.555-62.016,67.686-5.67,95.824-28.208,107.094-56.417s50.4-45.077,75.945-56.417V42.34c-25.969,29.748-60.2,73.5-70.276,107.164Z" transform="translate(6538.451 4804.996)" fill="#fff" opacity="0.09"/>
    <path id="Path_163" data-name="Path 163" d="M510.309,233.744s-31.008-22.539-47.947-2.8-53.547,0-47.947,22.539c5.67,22.539,19.739,31.008,45.077,19.739s45.077-5.67,56.417-16.939-5.67-22.539-5.67-22.539Z" transform="translate(6410.851 5887.936)" fill="#fff" opacity="0.09"/>
    <path id="Path_164" data-name="Path 164" d="M830.984,174.249s-14.07,22.539-28.209,67.686c-14.069,45.077-14.069,33.808-47.947,87.425-33.808,53.547-45.077,62.016-84.555,95.824s-62.016,59.216-87.425,78.955c-25.339,19.739-50.747,45.077-62.016,47.947-11.269,2.8,25.338-47.947,53.547-70.486s36.678-31.008,73.285-87.425c36.678-56.417,11.269-64.816,59.217-112.763s47.947-50.747,73.285-78.955,39.478-42.277,56.417-62.016,42.277-59.216,36.678-33.808c-5.67,25.338-42.277,67.686-42.277,67.686Z" transform="translate(7040.229 5141.148)" fill="#fff" opacity="0.09"/>
  </g>
</svg>
