<svg xmlns="http://www.w3.org/2000/svg" width="1435.803" height="1417.032" viewBox="0 0 1435.803 1417.032">
  <g id="clouds-left" transform="translate(-3898.882 -4624.399)">
    <path id="Path_165" data-name="Path 165" d="M1385.826,973.056c-62.016-22.539-107.094-22.539-197.318-50.747s-101.494-62.016-191.718-84.555S878.357,815.216,788.2,781.338,681.109,719.321,579.615,668.574,472.521,578.35,376.627,516.334C280.8,454.317,325.88,414.84,252.595,347.154s-56.417-101.494-129.7-191.718C80.4,103.148,30.428,85.02-4.15,78.93V645.756c18.759,0,36.258-4.13,59.356-11.129,56.417-16.939,28.208-16.939,84.555-11.269s33.808-22.539,90.225,5.67S292,707.982,376.557,764.329c84.555,56.417,163.51,45.077,248.065,73.286s129.7,33.808,236.8,33.808,101.494,11.269,202.988,50.747,73.286,33.808,157.84,73.286,90.225,11.269,157.841,16.939c67.686,5.67,67.686-16.939,5.67-39.478Z" transform="translate(3903.102 5024.521)" fill="#fff" opacity="0.09"/>
    <path id="Path_166" data-name="Path 166" d="M432.964,701.488c-45.077-33.808-33.808-45.077-62.016-73.286s-73.286-62.016-112.763-107.094-11.269-62.016-39.478-95.824S190.5,374.538,167.96,329.461s-16.939-67.686-62.016-95.824C60.866,205.428,89,154.681,49.527,75.8,34.058,44.578,14.249,24.069-4.16,10.49V368.378c40.458,40.808,55.507,34.3,127.042,96.244,84.555,73.286,45.077,62.016,78.955,107.094,33.808,45.077,45.077,50.747,112.763,95.824s50.747,45.077,118.433,73.286,90.225,73.286,101.494,50.747-56.417-56.417-101.494-90.225Z" transform="translate(3903.042 4613.909)" fill="#fff" opacity="0.09"/>
  </g>
</svg>
