<svg xmlns="http://www.w3.org/2000/svg" xmlns:xlink="http://www.w3.org/1999/xlink" width="4228.796" height="1129.942" viewBox="0 0 4228.796 1129.942">
  <defs>
    <linearGradient id="linear-gradient" x1="0.496" y1="-0.121" x2="0.502" y2="0.874" gradientUnits="objectBoundingBox">
      <stop offset="0" stop-color="#de5654"/>
      <stop offset="0.13" stop-color="#ce5254"/>
      <stop offset="0.37" stop-color="#a74854"/>
      <stop offset="0.7" stop-color="#673955"/>
      <stop offset="1" stop-color="#282a57"/>
    </linearGradient>
  </defs>
  <g id="mountain-1" transform="translate(-3898.812 -6192.585)">
    <path id="mountain-1-2" data-name="mountain-1" d="M4224.625,277.857c-54.947-14.279-117.1-30.448-134.882-34.858-33.808-8.469-84.555-8.469-84.555-8.469l-101.494,76.085-109.964,8.469-93.024,67.686-93.025,84.555s-135.3,8.469-160.71,25.338c-25.338,16.939-109.963,59.216-109.963,59.216l-118.433,8.469s-160.71-16.939-194.518-16.939-118.433-16.939-143.771-16.939-223.917-55.017-223.917-55.017-139.991,51.657-165.4,60.126c-25.338,8.469-86.445,71.4-86.445,71.4l-73.916,75.665s-126.833,16.939-152.241,16.939-84.555-50.747-84.555-50.747S1966.981,631.9,1941.573,623.5c-25.339-8.469-109.963-8.469-135.3-16.939s-109.963-25.339-177.579-59.216c-67.686-33.808-118.433-76.085-143.771-84.555s-126.832-42.277-177.579-33.808-143.771,25.338-202.988,25.338-160.71,0-253.735-25.338-287.543-135.3-321.351-160.71C495.46,242.93,326.28,285.207,233.256,319.015,183.559,337.074,80.8,355.133-4.17,368.082v996.39H4224.555V277.788Z" transform="translate(3902.982 5958.055)" fill="url(#linear-gradient)"/>
    <g id="Group_15" data-name="Group 15" transform="translate(4713.731 6385.86)">
      <path id="Path_137" data-name="Path 137" d="M1137.748,1016.61l1142.681-15.049,266.894-266.894,127.812-172.89L2612.7,391.827l-97.014,6.93s-160.71-16.939-194.518-16.939c-20.579,0-59.917-6.23-93.234-11.129-11.409,25.2-26.808,52.077-45.147,67.056-41.368,33.808-165.4,52.637-199.208,56.417s-78.955,56.417-105.274,78.955S1769.32,663.341,1724.173,674.61c-45.077,11.269-127.812,22.539-161.62,15.049s-82.665,0-135.3-33.808-78.955-52.637-131.592-67.686-165.4,18.829-191.718,0c-26.318-18.759-165.4-101.494-233.016-154.131-67.686-52.637-56.417-82.665-154.131-135.3A455.324,455.324,0,0,0,626.569,262.2a123.146,123.146,0,0,0-22.189,1.26c-49.557,8.259-139.292,24.569-198.648,25.268-37.658,23.308-72.8,45.5-79.865,43.747-15.049-3.78-116.543,67.686-116.543,67.686S133.8,467,113.01,472.883c35,20.859,235.4,190.388,235.4,190.388l789.343,353.339Z" transform="translate(-107.719 -262.143)" fill="#282a57" opacity="0.55"/>
      <path id="Path_138" data-name="Path 138" d="M117.475,292.437c-3.64-2.17-5.53-2.73-5.18-1.33C112.715,292.927,114.605,293.207,117.475,292.437Z" transform="translate(-112.254 -92.966)" fill="#282a57"/>
    </g>
  </g>
</svg>
