<svg xmlns="http://www.w3.org/2000/svg" xmlns:xlink="http://www.w3.org/1999/xlink" width="4228.796" height="1066.036" viewBox="0 0 4228.796 1066.036">
  <defs>
    <linearGradient id="linear-gradient" x1="0.476" y1="-0.734" x2="0.504" y2="0.845" gradientUnits="objectBoundingBox">
      <stop offset="0" stop-color="#de5654"/>
      <stop offset="0.13" stop-color="#ce5254"/>
      <stop offset="0.37" stop-color="#a74854"/>
      <stop offset="0.7" stop-color="#673955"/>
      <stop offset="1" stop-color="#282a57"/>
    </linearGradient>
    <linearGradient id="linear-gradient-2" x1="0.595" y1="-0.18" x2="0.485" y2="0.693" xlink:href="#linear-gradient"/>
    <linearGradient id="linear-gradient-3" x1="0.684" y1="-0.16" x2="0.549" y2="0.69" xlink:href="#linear-gradient"/>
  </defs>
  <g id="mountain-2" transform="translate(-3898.812 -6245.361)">
    <path id="Path_139" data-name="Path 139" d="M4224.625,474.246C4133.911,436.8,3961.3,363.023,3857.847,343.634c-135.3-25.339-126.833-33.808-194.518-50.747s-262.134-50.747-312.881-8.47-245.265,194.518-287.543,219.857-211.457,84.555-253.735,126.832-422.844,236.8-532.808,219.857-549.677-160.71-710.387-228.326c-160.71-67.686-338.29-177.579-422.845-228.326S830.25,242.07,779.5,242.07s-287.543,76.085-338.29,84.555-194.518,59.216-304.482,59.216c-40.948,0-92.394,3.5-140.9,7.91V1307.9H4224.555V474.106Z" transform="translate(3902.982 6003.291)" fill="url(#linear-gradient)"/>
    <path id="Path_140" data-name="Path 140" d="M136.742,385.861c-40.948,0-92.394,3.5-140.9,7.91v914.145H1679.448C1236.655,1087.779,659.19,790.577,624.682,721.561,568.266,608.8,951.7,417.079,940.433,366.333S779.443,242.09,779.443,242.09c-50.747,0-287.543,76.085-338.29,84.555s-194.518,59.216-304.482,59.216Z" transform="translate(3903.042 6003.412)" fill="url(#linear-gradient-2)"/>
    <path id="Path_141" data-name="Path 141" d="M1166.424,274.088c-59.146-14.769-215.167-42.488-287.4-21l.28,9.939s-50.747,112.763-39.478,169.18,191.718,169.18,191.718,287.543c0,74.616-353.689,364.118-619.533,569.486H1727.721V455.447C1637.006,418,1464.4,344.224,1360.943,324.835,1225.641,299.5,1234.11,291.027,1166.424,274.088Z" transform="translate(6399.886 6022.16)" fill="url(#linear-gradient-3)"/>
  </g>
</svg>
