<svg xmlns="http://www.w3.org/2000/svg" width="3927.533" height="1518.769" viewBox="0 0 3927.533 1518.769">
  <g id="stars" transform="translate(-4066.592 -4600.531)">
    <g id="Group_21" data-name="Group 21" transform="translate(4066.592 4869.245)">
      <path id="Path_149" data-name="Path 149" d="M552.029,67.7a4.2,4.2,0,1,1-4.2-4.2A4.212,4.212,0,0,1,552.029,67.7Z" transform="translate(3122.959 62.702)" fill="#fff"/>
      <circle id="Ellipse_6" data-name="Ellipse 6" cx="6.37" cy="6.37" r="6.37" transform="translate(726.836 360.828)" fill="#fff"/>
      <path id="Path_150" data-name="Path 150" d="M505.909,192.7a6.37,6.37,0,1,1-6.37-6.37A6.393,6.393,0,0,1,505.909,192.7Z" transform="translate(2820.22 799.631)" fill="#fff"/>
      <circle id="Ellipse_7" data-name="Ellipse 7" cx="6.37" cy="6.37" r="6.37" transform="translate(1170.12 592.024)" fill="#fff"/>
      <circle id="Ellipse_8" data-name="Ellipse 8" cx="6.37" cy="6.37" r="6.37" transform="translate(2569.125 175.479)" fill="#fff"/>
      <circle id="Ellipse_9" data-name="Ellipse 9" cx="6.37" cy="6.37" r="6.37" transform="translate(1362.538 1070.516)" fill="#fff"/>
      <circle id="Ellipse_10" data-name="Ellipse 10" cx="6.37" cy="6.37" r="6.37" transform="translate(2844.698 1088.154)" fill="#fff"/>
      <path id="Path_151" data-name="Path 151" d="M335.039,51.84a6.37,6.37,0,1,1-6.37-6.37A6.393,6.393,0,0,1,335.039,51.84Z" transform="translate(1795.072 -45.47)" fill="#fff"/>
      <circle id="Ellipse_11" data-name="Ellipse 11" cx="13.509" cy="13.509" r="13.509" transform="translate(1093.474 11.619)" fill="#fff"/>
      <circle id="Ellipse_12" data-name="Ellipse 12" cx="10.079" cy="10.079" r="10.079" transform="translate(360.828 385.327)" fill="#fff"/>
      <path id="Path_152" data-name="Path 152" d="M56.079,231.259A10.079,10.079,0,1,1,46,221.18,10.082,10.082,0,0,1,56.079,231.259Z" transform="translate(76.913 1008.716)" fill="#fff"/>
      <path id="Path_153" data-name="Path 153" d="M598.189,215.949a10.079,10.079,0,1,1-10.079-10.08A10.082,10.082,0,0,1,598.189,215.949Z" transform="translate(3329.344 916.862)" fill="#fff"/>
      <path id="Path_154" data-name="Path 154" d="M46.818,158.649A13.509,13.509,0,1,1,33.309,145.14,13.517,13.517,0,0,1,46.818,158.649Z" transform="translate(-19.8 552.508)" fill="#fff"/>
    </g>
    <g id="Group_22" data-name="Group 22" transform="translate(4066.662 4600.531)" opacity="0.55">
      <path id="Path_155" data-name="Path 155" d="M551.68,12.72a4.2,4.2,0,1,0,4.2-4.2A4.212,4.212,0,0,0,551.68,12.72Z" transform="translate(3171.186 1.559)" fill="#fff"/>
      <circle id="Ellipse_13" data-name="Ellipse 13" cx="6.37" cy="6.37" r="6.37" transform="translate(3187.958 420.885)" fill="#fff"/>
      <circle id="Ellipse_14" data-name="Ellipse 14" cx="6.37" cy="6.37" r="6.37" transform="translate(601.334 1046.087)" fill="#fff"/>
      <circle id="Ellipse_15" data-name="Ellipse 15" cx="6.37" cy="6.37" r="6.37" transform="translate(1910.185 809.991)" fill="#fff"/>
      <circle id="Ellipse_16" data-name="Ellipse 16" cx="6.37" cy="6.37" r="6.37" transform="translate(1345.599 235.536)" fill="#fff"/>
      <circle id="Ellipse_17" data-name="Ellipse 17" cx="6.37" cy="6.37" r="6.37" transform="translate(1070.026 1148.281)" fill="#fff"/>
      <circle id="Ellipse_18" data-name="Ellipse 18" cx="6.37" cy="6.37" r="6.37" transform="translate(1797.422 60.056)" fill="#fff"/>
      <circle id="Ellipse_19" data-name="Ellipse 19" cx="13.509" cy="13.509" r="13.509" transform="translate(2807.041 71.746)" fill="#fff"/>
      <path id="Path_156" data-name="Path 156" d="M526.48,80.789A10.079,10.079,0,1,0,536.56,70.71,10.082,10.082,0,0,0,526.48,80.789Z" transform="translate(3019.996 374.673)" fill="#fff"/>
      <circle id="Ellipse_20" data-name="Ellipse 20" cx="10.079" cy="10.079" r="10.079" transform="translate(793.822 0)" fill="#fff"/>
      <circle id="Ellipse_21" data-name="Ellipse 21" cx="10.079" cy="10.079" r="10.079" transform="translate(2073.695 377.767)" fill="#fff"/>
      <path id="Path_157" data-name="Path 157" d="M495.87,25.379A10.079,10.079,0,1,0,505.95,15.3,10.082,10.082,0,0,0,495.87,25.379Z" transform="translate(2836.349 42.237)" fill="#fff"/>
      <path id="Path_158" data-name="Path 158" d="M561.92,201.449A10.079,10.079,0,1,0,572,191.37,10.082,10.082,0,0,0,561.92,201.449Z" transform="translate(3232.621 1098.582)" fill="#fff"/>
      <path id="Path_159" data-name="Path 159" d="M19.81,186.149A10.079,10.079,0,1,0,29.889,176.07,10.082,10.082,0,0,0,19.81,186.149Z" transform="translate(-19.81 1006.789)" fill="#fff"/>
      <circle id="Ellipse_22" data-name="Ellipse 22" cx="13.509" cy="13.509" r="13.509" transform="translate(3900.445 757.704)" fill="#fff"/>
    </g>
  </g>
</svg>
